<?xml version="1.0" standalone="yes"?>
<svg xmlns="http://www.w3.org/2000/svg" width="92" height="32">
<path style="fill:#ffffff; stroke:none;" d="M0 0L0 222L780 222L780 0L0 0z"/>
<path style="fill:#c4c7cd; stroke:none;" d="M81 38L81 39L89 39L81 38M203 38L204 39L203 38M310 38L311 39L310 38M76.6667 39.3333L77.3333 39.6667L76.6667 39.3333z"/>
<path style="fill:#dc41d4; stroke:none;" d="M78 39.5293C43.6654 47.4109 56.0774 101.555 90 94.331C127.001 86.4513 114.677 31.11 78 39.5293z"/>
<path style="fill:#c4c7cd; stroke:none;" d="M93 39L94 40L93 39M199 39L200 40L199 39z"/>
<path style="fill:#dc41d4; stroke:none;" d="M195 57C198.912 59.9109 212.569 62.1193 210.208 53.1042C209.405 50.0398 190.367 41.1172 205.956 41.6698C207.293 41.7171 208.666 41.9059 210 42C206.202 38.4411 194.813 37.7027 196.377 45.8148C196.956 48.8193 215.237 58.0381 200.025 56.8241C198.143 56.6739 196.858 56.6959 195 57z"/>
<path style="fill:#c4c7cd; stroke:none;" d="M207 39L208 40L207 39M228 39L229 40L228 39z"/>
<path style="fill:#dc41d4; stroke:none;" d="M220 60C224.791 57.6357 228.827 53.1119 234.776 55.5988C237.288 56.6487 238.377 59.0608 241 60L232 39C225.332 41.1534 221.8 53.7039 220 60z"/>
<path style="fill:#c4c7cd; stroke:none;" d="M232.333 39.6667L232.667 40.3333L232.333 39.6667z"/>
<path style="fill:#dc41d4; stroke:none;" d="M252 39L252 60L266 60L266 57L255 57L255 39L252 39M277 39L277 60L292 60L292 57L280 57L280 50L290 50L290 48L280 48L280 42L291 42L291 39L277 39z"/>
<path style="fill:#c4c7cd; stroke:none;" d="M291 39L291 42L292 42L291 39M306 39L307 40L306 39z"/>
<path style="fill:#dc41d4; stroke:none;" d="M315 57L303 56C305.915 60.6258 318.053 61.9694 317.454 54.0285C316.975 47.6834 307.134 48.9491 306 42L317 42C313.347 38.5772 301.343 37.7903 303.712 45.8958C305.459 51.8715 313.842 49.8997 315 57z"/>
<path style="fill:#c4c7cd; stroke:none;" d="M314.667 39.3333L315.333 39.6667L314.667 39.3333M73.6667 40.3333L74.3333 40.6667L73.6667 40.3333M96 40L97 41L96 40M197 40L198 41L197 40M209.667 40.3333L210.333 40.6667L209.667 40.3333M304 40L305 41L304 40M316.667 40.3333L317.333 40.6667L316.667 40.3333M72 41L73 42L72 41M98 41L99 42L98 41M196 41L197 42L196 41M202 41L202 42L206 42L202 41M227.333 41.6667L227.667 42.3333L227.333 41.6667M309 41L309 42L313 42L309 41M70 42L71 43L70 42M100 42L101 43L100 42M199 42L200 43L199 42M207 42L207 43L210 43L207 42M233 42L234 43L233 42M303 42L304 43L303 42M306 42L307 43L306 42M315.667 42.3333L316.333 42.6667L315.667 42.3333M68 43L69 44L68 43M101 43L102 44L101 43z"/>
<path style="fill:#ffffff; stroke:none;" d="M230 43L227 52L234 52L230 43z"/>
<path style="fill:#c4c7cd; stroke:none;" d="M67 44L68 45L67 44M102 44L103 45L102 44M195 44L195 47L196 47L195 44M198 44L199 45L198 44M226 44L227 45L226 44M229 44L230 45L229 44M231 44L232 45L231 44M234 44L235 45L234 44M66 45L67 46L66 45M302 45L303 46L302 45M65 46L66 47L65 46M199 46L200 47L199 46M225 46L226 47L225 46M232 46L233 47L232 46M235 46L236 47L235 46M306 46L307 47L306 46M64 47L65 48L64 47M201 47L202 48L201 47M228 47L229 48L228 47M303 47L304 48L303 47M308.667 47.3333L309.333 47.6667L308.667 47.3333M63 48L64 49L63 48M106 48L107 49L106 48M197 48L198 49L197 48M204.667 48.3333L205.333 48.6667L204.667 48.3333M224 48L225 49L224 48M233.333 48.6667L233.667 49.3333L233.333 48.6667M236.333 48.6667L236.667 49.3333L236.333 48.6667M290.333 48.6667L290.667 49.3333L290.333 48.6667M304 48L305 49L304 48M311.667 48.3333L312.333 48.6667L311.667 48.3333M62 49L63 50L62 49M107 49L108 50L107 49M198 49L199 50L198 49M207 49L208 50L207 49M227 49L228 50L227 49M305.667 49.3333L306.333 49.6667L305.667 49.3333M314.667 49.3333L315.333 49.6667L314.667 49.3333M61 50L62 51L61 50M108 50L109 51L108 50M201.667 50.3333L202.333 50.6667L201.667 50.3333M209 50L210 51L209 50M223 50L224 51L223 50M237.333 50.6667L237.667 51.3333L237.333 50.6667M280 50L280 51L290 51L280 50M308.667 50.3333L309.333 50.6667L308.667 50.3333M316 50L317 51L316 50M204.667 51.3333L205.333 51.6667L204.667 51.3333M210 51L211 52L210 51M226 51L227 52L226 51M234 51L235 52L234 51M311.667 51.3333L312.333 51.6667L311.667 51.3333M317 51L318 52L317 51M60 52L61 53L60 52M109 52L110 53L109 52M314 52L315 53L314 52M207 53L208 54L207 53M222 53L223 54L222 53M238 53L239 54L238 53M318.333 53.6667L318.667 54.3333L318.333 53.6667M59 54L60 55L59 54M110 54L111 55L110 54M196 55L197 56L196 55M207 55L208 56L207 55M210.333 55.6667L210.667 56.3333L210.333 55.6667M221 55L222 56L221 55M236 55L237 56L236 55M239 55L240 56L239 55M303.667 55.3333L304.333 55.6667L303.667 55.3333M58 56L59 57L58 56M111 56L112 57L111 56M195 56L196 57L195 56M198 56L199 57L198 56M206 56L207 57L206 56M224 56L225 57L224 56M302.333 56.6667L302.667 57.3333L302.333 56.6667M305 56L306 57L305 56M314 56L315 57L314 56M317.333 56.6667L317.667 57.3333L317.333 56.6667M202.667 57.3333L203.333 57.6667L202.667 57.3333M220 57L221 58L220 57M237.333 57.6667L237.667 58.3333L237.333 57.6667M240 57L241 58L240 57M309 57L309 58L312 58L309 57M196 58L197 59L196 58M223 58L224 59L223 58M303 58L304 59L303 58M316 58L317 59L316 58M57.3333 59.6667L57.6667 60.3333L57.3333 59.6667M112.333 59.6667L112.667 60.3333L112.333 59.6667M198.667 59.3333L199.333 59.6667L198.667 59.3333M207 59L208 60L207 59M219 59L220 60L219 59M222 59L223 60L222 59M241 59L242 60L241 59M305 59L305 60L308 60L305 59M314 59L315 60L314 59M113 64L113 69L114 69L113 64M56 66L57 67L56 66M57.3333 72.6667L57.6667 73.3333L57.3333 72.6667M112.333 73.6667L112.667 74.3333L112.333 73.6667M58.3333 75.6667L58.6667 76.3333L58.3333 75.6667M111 77L112 78L111 77M59 78L60 79L59 78M586 78L586 79L592 79L586 78M110 79L111 80L110 79M577.667 79.3333L578.333 79.6667L577.667 79.3333z"/>
<path style="fill:#4074e2; stroke:none;" d="M579 79L579 80L582 80L579 79z"/>
<path style="fill:#1a1e32; stroke:none;" d="M629 158L613 144L612 144C608.128 147.694 604.072 151.114 599 153.046C563.154 166.693 549.51 104.065 587 100.963C590.641 100.662 594.505 100.776 598 101.915C603.463 103.696 607.893 107.104 612 111L613 111L629 97C621.376 86.2061 609.641 81.5647 597 79.5903C587.75 78.1456 577.794 79.2302 569 82.4359C561.637 85.12 555.089 89.4077 549.755 95.1705C544.765 100.561 541.308 106.885 539.478 114C535.249 130.449 538.941 149.594 551.174 161.826C570.518 181.171 612.991 182.493 629 158z"/>
<path style="fill:#4074e2; stroke:none;" d="M596 79L596 80L600 80L596 79z"/>
<path style="fill:#c4c7cd; stroke:none;" d="M600 79L601 80L600 79M60 80L61 81L60 80M194 80L194 81L242 81C229.586 75.7907 207.526 80 194 80M304 80L304 81L331 81L304 80M366 80L366 81L392 81L366 80M422 80L422 81L444 81L422 80M485 80L485 81L511 81L485 80M573 80L574 81L573 80z"/>
<path style="fill:#4074e2; stroke:none;" d="M574.667 80.3333L575.333 80.6667L574.667 80.3333M602 80L602 81L605 81L602 80z"/>
<path style="fill:#c4c7cd; stroke:none;" d="M653 80L653 81L679 81L653 80M715 116L716 116L716 81L742 81L742 174L743 152L743 104L741.972 81.6034L729 80L716.603 81.0278L715 90L715 116M109 81L110 82L109 81z"/>
<path style="fill:#4074e2; stroke:none;" d="M194 81L194 151C194 155.813 191.545 170.758 195.603 173.972C200.306 177.697 215.113 175 221 175L221 174L195 174L195 110L194 81z"/>
<path style="fill:#1a1e32; stroke:none;" d="M195 81L195 174L221 174L221 150C235.884 150 251.981 150.921 264.999 142.452C283.044 130.713 283.416 101.414 265.996 88.7886C247.526 75.4019 216.504 81 195 81z"/>
<path style="fill:#4074e2; stroke:none;" d="M245 81L245 82L249 82L245 81z"/>
<path style="fill:#c4c7cd; stroke:none;" d="M249 81L250 82L249 81z"/>
<path style="fill:#4074e2; stroke:none;" d="M304 81L304 138L305 138L305 99L304 81z"/>
<path style="fill:#1a1e32; stroke:none;" d="M305 81C305 103.15 299.271 134.708 309.273 155C322.623 182.083 370.377 184.114 386.07 158C398.276 137.689 392 103.83 392 81L367 81L367 128C366.988 135.76 366.201 145.179 359.895 150.606C350.632 158.579 336.262 154.229 332.133 143C325.602 125.236 330 99.7057 330 81L305 81z"/>
<path style="fill:#4074e2; stroke:none;" d="M330 81L330 133L331 133L331 98L330 81M366 81L366 137L367 137L367 99L366 81M392 81L392 135L393 135L393 99L392 81M422 81L422 175L448 175L448 174L423 174L423 110L422 81z"/>
<path style="fill:#1a1e32; stroke:none;" d="M423 81L423 174L448 174L448 125L477.753 160L490.171 173.397L511 174L511 81L486 81L486 131L457.586 97L443.961 82.0278L423 81z"/>
<path style="fill:#4074e2; stroke:none;" d="M444 81L445 82L444 81M485 81L485 131L486 131C486 116.951 490.409 93.8897 485 81M511 81L511 174L489 174L489 175C493.718 175 507.827 177.368 510.972 173.397C514.349 169.133 512 156.278 512 151L512 103C512 96.3141 513.599 87.194 511 81z"/>
<path style="fill:#c4c7cd; stroke:none;" d="M570 81L571 82L570 81z"/>
<path style="fill:#4074e2; stroke:none;" d="M571 81L572 82L571 81M606.667 81.3333L607.333 81.6667L606.667 81.3333z"/>
<path style="fill:#1a1e32; stroke:none;" d="M653 81L653 174L679 174L679 138L716 138L716 174L742 174L742 81L716 81L716 116L679 116L679 81L653 81z"/>
<path style="fill:#4074e2; stroke:none;" d="M679 81L679 116L680 116L679 81z"/>
<path style="fill:#c4c7cd; stroke:none;" d="M61 82L62 83L61 82M108 82L109 83L108 82z"/>
<path style="fill:#4074e2; stroke:none;" d="M251.667 82.3333L252.333 82.6667L251.667 82.3333z"/>
<path style="fill:#c4c7cd; stroke:none;" d="M253 82L254 83L253 82z"/>
<path style="fill:#4074e2; stroke:none;" d="M445 82L446 83L445 82z"/>
<path style="fill:#c4c7cd; stroke:none;" d="M567 82L568 83L567 82z"/>
<path style="fill:#4074e2; stroke:none;" d="M568 82L569 83L568 82M609.667 82.3333L610.333 82.6667L609.667 82.3333z"/>
<path style="fill:#c4c7cd; stroke:none;" d="M62 83L63 84L62 83z"/>
<path style="fill:#4074e2; stroke:none;" d="M255.667 83.3333L256.333 83.6667L255.667 83.3333M446 83L447 84L446 83z"/>
<path style="fill:#c4c7cd; stroke:none;" d="M565 83L566 84L565 83z"/>
<path style="fill:#4074e2; stroke:none;" d="M566 83L567 84L566 83M612 83L613 84L612 83z"/>
<path style="fill:#c4c7cd; stroke:none;" d="M63 84L64 85L63 84z"/>
<path style="fill:#4074e2; stroke:none;" d="M258 84L259 85L258 84z"/>
<path style="fill:#c4c7cd; stroke:none;" d="M447 84L448 85L447 84z"/>
<path style="fill:#4074e2; stroke:none;" d="M563 84L564 85L563 84M614 84L615 85L614 84z"/>
<path style="fill:#c4c7cd; stroke:none;" d="M106 85L107 86L106 85z"/>
<path style="fill:#4074e2; stroke:none;" d="M260 85L261 86L260 85z"/>
<path style="fill:#c4c7cd; stroke:none;" d="M448 85L449 86L448 85z"/>
<path style="fill:#4074e2; stroke:none;" d="M561 85L562 86L561 85M616 85L617 86L616 85z"/>
<path style="fill:#c4c7cd; stroke:none;" d="M105 86L106 87L105 86z"/>
<path style="fill:#4074e2; stroke:none;" d="M262 86L263 87L262 86M448 86L449 87L448 86z"/>
<path style="fill:#c4c7cd; stroke:none;" d="M559 86L560 87L559 86z"/>
<path style="fill:#4074e2; stroke:none;" d="M560 86L561 87L560 86M618 86L619 87L618 86z"/>
<path style="fill:#c4c7cd; stroke:none;" d="M65 87L66 88L65 87M104 87L105 88L104 87M132 87L132 88L141 88L132 87z"/>
<path style="fill:#4074e2; stroke:none;" d="M264 87L265 88L264 87M449 87L450 88L449 87M558 87L559 88L558 87M619 87L620 88L619 87z"/>
<path style="fill:#c4c7cd; stroke:none;" d="M128 88L129 89L128 88z"/>
<path style="fill:#4074e2; stroke:none;" d="M129 88.5324C120.01 90.6734 113.236 98.7644 107 105L72 140C67.4896 144.51 56.9242 151.668 55.3457 158C54.4578 161.561 58.802 164.828 61.0008 166.985C69.0061 174.839 78.6942 179.133 90 176.71C99.8577 174.597 106.191 166.809 113 160L148 125C152.51 120.49 163.076 113.332 164.654 107C165.542 103.439 161.198 100.172 158.999 98.0147C150.802 89.9732 140.571 85.7765 129 88.5324z"/>
<path style="fill:#c4c7cd; stroke:none;" d="M144 88L145 89L144 88z"/>
<path style="fill:#4074e2; stroke:none;" d="M265 88L266 89L265 88M450 88L451 89L450 88z"/>
<path style="fill:#c4c7cd; stroke:none;" d="M556 88L557 89L556 88z"/>
<path style="fill:#4074e2; stroke:none;" d="M557 88L558 89L557 88M620 88L621 89L620 88z"/>
<path style="fill:#c4c7cd; stroke:none;" d="M621 88L622 89L621 88M68 89L69 90L68 89M101 89L102 90L101 89M125 89L126 90L125 89M147 89L148 90L147 89M267 89L268 90L267 89z"/>
<path style="fill:#4074e2; stroke:none;" d="M451 89L452 90L451 89M555 89L556 90L555 89M622 89L623 90L622 89z"/>
<path style="fill:#c4c7cd; stroke:none;" d="M69 90L70 91L69 90M100 90L101 91L100 90M123 90L124 91L123 90M149 90L150 91L149 90z"/>
<path style="fill:#4074e2; stroke:none;" d="M268 90L269 91L268 90z"/>
<path style="fill:#c4c7cd; stroke:none;" d="M452 90L453 91L452 90z"/>
<path style="fill:#4074e2; stroke:none;" d="M554 90L555 91L554 90M623 90L624 91L623 90z"/>
<path style="fill:#c4c7cd; stroke:none;" d="M71 91L72 92L71 91M98 91L99 92L98 91M122 91L123 92L122 91M151 91L152 92L151 91z"/>
<path style="fill:#4074e2; stroke:none;" d="M269 91L270 92L269 91z"/>
<path style="fill:#c4c7cd; stroke:none;" d="M453 91L454 92L453 91z"/>
<path style="fill:#4074e2; stroke:none;" d="M553 91L554 92L553 91M624 91L625 92L624 91z"/>
<path style="fill:#c4c7cd; stroke:none;" d="M73 92L74 93L73 92M96 92L97 93L96 92M120 92L121 93L120 92M152 92L153 93L152 92z"/>
<path style="fill:#4074e2; stroke:none;" d="M270 92L271 93L270 92M453 92L454 93L453 92z"/>
<path style="fill:#c4c7cd; stroke:none;" d="M551 92L552 93L551 92z"/>
<path style="fill:#4074e2; stroke:none;" d="M552 92L553 93L552 92M625 92L626 93L625 92z"/>
<path style="fill:#c4c7cd; stroke:none;" d="M75 93L76 94L75 93M93.6667 93.3333L94.3333 93.6667L93.6667 93.3333M119 93L120 94L119 93z"/>
<path style="fill:#4074e2; stroke:none;" d="M271 93L272 94L271 93M454 93L455 94L454 93M626 93L627 94L626 93z"/>
<path style="fill:#c4c7cd; stroke:none;" d="M78 94L78 95L81 95L78 94M89 94L89 95L92 95L89 94M155 94L156 95L155 94M272 94L273 95L272 94z"/>
<path style="fill:#4074e2; stroke:none;" d="M455 94L456 95L455 94M550 94L551 95L550 94M627 94L628 95L627 94z"/>
<path style="fill:#c4c7cd; stroke:none;" d="M156 95L157 96L156 95z"/>
<path style="fill:#4074e2; stroke:none;" d="M272 95L273 96L272 95M456 95L457 96L456 95M549 95L550 96L549 95M628 95L629 96L628 95z"/>
<path style="fill:#c4c7cd; stroke:none;" d="M157 96L158 97L157 96z"/>
<path style="fill:#4074e2; stroke:none;" d="M273 96L274 97L273 96z"/>
<path style="fill:#c4c7cd; stroke:none;" d="M457 96L458 97L457 96z"/>
<path style="fill:#4074e2; stroke:none;" d="M548 96L549 97L548 96z"/>
<path style="fill:#c4c7cd; stroke:none;" d="M629 96L630 97L629 96M158 97L159 98L158 97M274 97L275 98L274 97M458 97L459 98L458 97z"/>
<path style="fill:#4074e2; stroke:none;" d="M547 97L548 98L547 97z"/>
<path style="fill:#c4c7cd; stroke:none;" d="M628 97L629 98L628 97M159 98L160 99L159 98z"/>
<path style="fill:#4074e2; stroke:none;" d="M274 98L275 99L274 98M458 98L459 99L458 98M546 98L547 99L546 98z"/>
<path style="fill:#c4c7cd; stroke:none;" d="M627 98L628 99L627 98M160 99L161 100L160 99M275 99L276 100L275 99z"/>
<path style="fill:#4074e2; stroke:none;" d="M459 99L460 100L459 99z"/>
<path style="fill:#c4c7cd; stroke:none;" d="M626 99L627 100L626 99M161 100L162 101L161 100z"/>
<path style="fill:#4074e2; stroke:none;" d="M275 100L276 101L275 100M460 100L461 101L460 100M545 100L546 101L545 100M589.667 100.333L590.333 100.667L589.667 100.333M624 100L625 101L624 100z"/>
<path style="fill:#c4c7cd; stroke:none;" d="M162 101L163 102L162 101z"/>
<path style="fill:#4074e2; stroke:none;" d="M221 101L221 102L240 102L221 101z"/>
<path style="fill:#c4c7cd; stroke:none;" d="M276 101L277 102L276 101z"/>
<path style="fill:#4074e2; stroke:none;" d="M461 101L462 102L461 101M544 101L545 102L544 101M582 101L582 102L585 102L582 101z"/>
<path style="fill:#c4c7cd; stroke:none;" d="M585.667 101.333L586.333 101.667L585.667 101.333M594 101L595 102L594 101z"/>
<path style="fill:#4074e2; stroke:none;" d="M595 101L595 102L598 102L595 101M623 101L624 102L623 101z"/>
<path style="fill:#c4c7cd; stroke:none;" d="M163 102L164 103L163 102z"/>
<path style="fill:#ffffff; stroke:none;" d="M221 102L221 129C228.863 129 238.808 130.55 245.956 126.558C253.934 122.102 253.821 108.694 245.956 104.14C239.125 100.184 228.582 102 221 102z"/>
<path style="fill:#c4c7cd; stroke:none;" d="M241 102L242 103L241 102z"/>
<path style="fill:#4074e2; stroke:none;" d="M242.667 102.333L243.333 102.667L242.667 102.333M276 102L277 103L276 102z"/>
<path style="fill:#c4c7cd; stroke:none;" d="M462 102L463 103L462 102z"/>
<path style="fill:#4074e2; stroke:none;" d="M580 102L581 103L580 102z"/>
<path style="fill:#c4c7cd; stroke:none;" d="M581 102L582 103L581 102z"/>
<path style="fill:#4074e2; stroke:none;" d="M599 102L600 103L599 102M622 102L623 103L622 102z"/>
<path style="fill:#c4c7cd; stroke:none;" d="M164 103L165 104L164 103z"/>
<path style="fill:#4074e2; stroke:none;" d="M245 103L246 104L245 103z"/>
<path style="fill:#c4c7cd; stroke:none;" d="M277.333 103.667L277.667 104.333L277.333 103.667M463 103L464 104L463 103z"/>
<path style="fill:#4074e2; stroke:none;" d="M543 103L544 104L543 103M577 103L578 104L577 103z"/>
<path style="fill:#c4c7cd; stroke:none;" d="M578 103L579 104L578 103M601 103L602 104L601 103z"/>
<path style="fill:#4074e2; stroke:none;" d="M602 103L603 104L602 103M621 103L622 104L621 103z"/>
<path style="fill:#c4c7cd; stroke:none;" d="M165 104L166 105L165 104z"/>
<path style="fill:#4074e2; stroke:none;" d="M247 104L248 105L247 104M463 104L464 105L463 104z"/>
<path style="fill:#c4c7cd; stroke:none;" d="M576 104L577 105L576 104z"/>
<path style="fill:#4074e2; stroke:none;" d="M603 104L604 105L603 104M620 104L621 105L620 104M248 105L249 106L248 105M277 105L278 106L277 105M464 105L465 106L464 105M542 105L543 106L542 105M574 105L575 106L574 105z"/>
<path style="fill:#c4c7cd; stroke:none;" d="M575 105L576 106L575 105z"/>
<path style="fill:#4074e2; stroke:none;" d="M605 105L606 106L605 105M619 105L620 106L619 105M249 106L250 107L249 106M465 106L466 107L465 106M573 106L574 107L573 106M606.667 106.333L607.333 106.667L606.667 106.333M618 106L619 107L618 106z"/>
<path style="fill:#c4c7cd; stroke:none;" d="M47 107L47 108L54 108L47 107z"/>
<path style="fill:#4074e2; stroke:none;" d="M250 107L251 108L250 107z"/>
<path style="fill:#c4c7cd; stroke:none;" d="M278 107L279 108L278 107z"/>
<path style="fill:#4074e2; stroke:none;" d="M466 107L467 108L466 107M541 107L542 108L541 107z"/>
<path style="fill:#c4c7cd; stroke:none;" d="M572 107L573 108L572 107z"/>
<path style="fill:#4074e2; stroke:none;" d="M608 107L609 108L608 107z"/>
<path style="fill:#c4c7cd; stroke:none;" d="M617 107L618 108L617 107M43 108L44 109L43 108z"/>
<path style="fill:#dc41d4; stroke:none;" d="M53 159C58.5806 155.069 63.1807 149.819 68 145C71.8317 141.168 80.3032 135.42 81.6543 130C82.7937 125.43 74.9316 119.787 72 117.174C59.6376 106.155 44.1309 104.813 31 115.468C28.2044 117.736 22.2068 121.968 22.2068 126C22.2068 129.812 27.5763 133.575 30 136L53 159z"/>
<path style="fill:#c4c7cd; stroke:none;" d="M57.6667 108.333L58.3333 108.667L57.6667 108.333M250 108L251 109L250 108z"/>
<path style="fill:#4074e2; stroke:none;" d="M278 108L278 111L279 111L278 108z"/>
<path style="fill:#c4c7cd; stroke:none;" d="M467 108L468 109L467 108M571 108L572 109L571 108z"/>
<path style="fill:#4074e2; stroke:none;" d="M609 108L610 109L609 108z"/>
<path style="fill:#c4c7cd; stroke:none;" d="M616 108L617 109L616 108M40 109L41 110L40 109M61 109L62 110L61 109z"/>
<path style="fill:#4074e2; stroke:none;" d="M251.333 109.667L251.667 110.333L251.333 109.667z"/>
<path style="fill:#c4c7cd; stroke:none;" d="M468 109L469 110L468 109z"/>
<path style="fill:#4074e2; stroke:none;" d="M540.333 109.667L540.667 110.333L540.333 109.667M570 109L571 110L570 109M610 109L611 110L610 109M614 109L615 110L614 109z"/>
<path style="fill:#c4c7cd; stroke:none;" d="M615 109L616 110L615 109M38 110L39 111L38 110M62 110L63 111L62 110z"/>
<path style="fill:#4074e2; stroke:none;" d="M468 110L469 111L468 110M569 110L570 111L569 110M611 110L612 111L611 110M613 110L614 111L613 110z"/>
<path style="fill:#c4c7cd; stroke:none;" d="M36 111L37 112L36 111M64 111L65 112L64 111M251 111L252 112L251 111z"/>
<path style="fill:#4074e2; stroke:none;" d="M469 111L470 112L469 111M612 111L613 112L612 111z"/>
<path style="fill:#c4c7cd; stroke:none;" d="M34 112L35 113L34 112M66 112L67 113L66 112z"/>
<path style="fill:#4074e2; stroke:none;" d="M470 112L471 113L470 112M539.333 112.667L539.667 113.333L539.333 112.667M568 112L569 113L568 112z"/>
<path style="fill:#c4c7cd; stroke:none;" d="M33 113L34 114L33 113M67 113L68 114L67 113z"/>
<path style="fill:#4074e2; stroke:none;" d="M471 113L472 114L471 113M567 113L568 114L567 113z"/>
<path style="fill:#c4c7cd; stroke:none;" d="M32 114L33 115L32 114M68 114L69 115L68 114z"/>
<path style="fill:#4074e2; stroke:none;" d="M252 114L252 117L253 117L252 114z"/>
<path style="fill:#c4c7cd; stroke:none;" d="M472 114L473 115L472 114M538 115L539 116L538 115z"/>
<path style="fill:#4074e2; stroke:none;" d="M566.333 115.667L566.667 116.333L566.333 115.667M473 116L474 117L473 116M538 116L538 119L539 119L538 116M474 117L475 118L474 117M475 118L476 119L475 118M565 118L566 119L565 118M251.333 119.667L251.667 120.333L251.333 119.667z"/>
<path style="fill:#c4c7cd; stroke:none;" d="M476 119L477 120L476 119M565 119L566 120L565 119z"/>
<path style="fill:#4074e2; stroke:none;" d="M278 120L278 123L279 123L278 120z"/>
<path style="fill:#c4c7cd; stroke:none;" d="M477 120L478 121L477 120M537.333 120.667L537.667 121.333L537.333 120.667z"/>
<path style="fill:#4074e2; stroke:none;" d="M477 121L478 122L477 121M564 121L564 126L565 126L564 121M250 122L251 123L250 122M478 122L479 123L478 122M537 122L537 133L538 133L537 122z"/>
<path style="fill:#c4c7cd; stroke:none;" d="M278 123L279 124L278 123z"/>
<path style="fill:#4074e2; stroke:none;" d="M479 123L480 124L479 123M249 124L250 125L249 124M480 124L481 125L480 124M248 125L249 126L248 125M277.333 125.667L277.667 126.333L277.333 125.667z"/>
<path style="fill:#c4c7cd; stroke:none;" d="M448 125L448 174L449 174L449 140L448 125z"/>
<path style="fill:#4074e2; stroke:none;" d="M449 125L450 126L449 125z"/>
<path style="fill:#c4c7cd; stroke:none;" d="M481 125L482 126L481 125M246 126L247 127L246 126M482 126L483 127L482 126M564 126L564 130L565 130L564 126M244 127L245 128L244 127z"/>
<path style="fill:#4074e2; stroke:none;" d="M245 127L246 128L245 127z"/>
<path style="fill:#c4c7cd; stroke:none;" d="M450 127L451 128L450 127z"/>
<path style="fill:#4074e2; stroke:none;" d="M482 127L483 128L482 127z"/>
<path style="fill:#c4c7cd; stroke:none;" d="M240 128L241 129L240 128z"/>
<path style="fill:#4074e2; stroke:none;" d="M241.667 128.333L242.333 128.667L241.667 128.333M276.333 128.667L276.667 129.333L276.333 128.667M451 128L452 129L451 128M483 128L484 129L483 128M452 129L453 130L452 129M453 130L454 131L453 130M564 130L564 134L565 134L564 130M275 131L276 132L275 131M454 131L455 132L454 131M274 132L275 133L274 132z"/>
<path style="fill:#c4c7cd; stroke:none;" d="M454 132L455 133L454 132M274 133L275 134L274 133M455 133L456 134L455 133M537.333 133.667L537.667 134.333L537.333 133.667z"/>
<path style="fill:#4074e2; stroke:none;" d="M273 134L274 135L273 134M456 134L457 135L456 134M272 135L273 136L272 135z"/>
<path style="fill:#c4c7cd; stroke:none;" d="M392 135L392 138L393 138L392 135z"/>
<path style="fill:#4074e2; stroke:none;" d="M457 135L458 136L457 135z"/>
<path style="fill:#c4c7cd; stroke:none;" d="M565 135L566 136L565 135z"/>
<path style="fill:#4074e2; stroke:none;" d="M458 136L459 137L458 136M538 136L538 139L539 139L538 136M565.333 136.667L565.667 137.333L565.333 136.667z"/>
<path style="fill:#c4c7cd; stroke:none;" d="M271 137L272 138L271 137M331.333 137.667L331.667 138.333L331.333 137.667z"/>
<path style="fill:#4074e2; stroke:none;" d="M459 137L460 138L459 137z"/>
<path style="fill:#c4c7cd; stroke:none;" d="M270 138L271 139L270 138M304 138L304 142L305 142L304 138M459 138L460 139L459 138M566 138L567 139L566 138z"/>
<path style="fill:#4074e2; stroke:none;" d="M679 138L679 174L653 174L653 175L678.397 173.972L680 165L679 138z"/>
<path style="fill:#c4c7cd; stroke:none;" d="M715 138L715 175L716 175C716 164.351 719.111 147.798 715 138M269 139L270 140L269 139z"/>
<path style="fill:#4074e2; stroke:none;" d="M331 139L331 142L332 142L331 139M365 139L365 142L366 142L365 139M460 139L461 140L460 139z"/>
<path style="fill:#c4c7cd; stroke:none;" d="M538.333 139.667L538.667 140.333L538.333 139.667z"/>
<path style="fill:#4074e2; stroke:none;" d="M566 139L567 140L566 139M267 140L268 141L267 140z"/>
<path style="fill:#c4c7cd; stroke:none;" d="M268 140L269 141L268 140z"/>
<path style="fill:#4074e2; stroke:none;" d="M461 140L462 141L461 140M266 141L267 142L266 141M462 141L463 142L462 141M539.333 141.667L539.667 142.333L539.333 141.667z"/>
<path style="fill:#c4c7cd; stroke:none;" d="M567 141L568 142L567 141z"/>
<path style="fill:#4074e2; stroke:none;" d="M265 142L266 143L265 142z"/>
<path style="fill:#c4c7cd; stroke:none;" d="M332 142L333 143L332 142z"/>
<path style="fill:#4074e2; stroke:none;" d="M391 142L391 145L392 145L391 142M463 142L464 143L463 142z"/>
<path style="fill:#c4c7cd; stroke:none;" d="M568 142L569 143L568 142z"/>
<path style="fill:#4074e2; stroke:none;" d="M263 143L264 144L263 143z"/>
<path style="fill:#c4c7cd; stroke:none;" d="M264 143L265 144L264 143z"/>
<path style="fill:#4074e2; stroke:none;" d="M305.333 143.667L305.667 144.333L305.333 143.667M332.333 143.667L332.667 144.333L332.333 143.667M364.333 143.667L364.667 144.333L364.333 143.667z"/>
<path style="fill:#c4c7cd; stroke:none;" d="M539 143L540 144L539 143z"/>
<path style="fill:#4074e2; stroke:none;" d="M568 143L569 144L568 143z"/>
<path style="fill:#c4c7cd; stroke:none;" d="M612 143L613 144L612 143z"/>
<path style="fill:#4074e2; stroke:none;" d="M261 144L262 145L261 144z"/>
<path style="fill:#c4c7cd; stroke:none;" d="M262 144L263 145L262 144M464 144L465 145L464 144z"/>
<path style="fill:#4074e2; stroke:none;" d="M540 144L541 145L540 144M569 144L570 145L569 144M611 144L612 145L611 144M613 144L614 145L613 144M259 145L260 146L259 145z"/>
<path style="fill:#c4c7cd; stroke:none;" d="M260 145L261 146L260 145M305 145L306 146L305 145M333 145L334 146L333 145z"/>
<path style="fill:#4074e2; stroke:none;" d="M465 145L466 146L465 145z"/>
<path style="fill:#c4c7cd; stroke:none;" d="M540.333 145.667L540.667 146.333L540.333 145.667M570 145L571 146L570 145z"/>
<path style="fill:#4074e2; stroke:none;" d="M610 145L611 146L610 145M614 145L615 146L614 145M257 146L258 147L257 146z"/>
<path style="fill:#c4c7cd; stroke:none;" d="M258 146L259 147L258 146z"/>
<path style="fill:#4074e2; stroke:none;" d="M333 146L334 147L333 146M363 146L364 147L363 146M390 146L390 149L391 149L390 146M466 146L467 147L466 146M570 146L571 147L570 146M609 146L610 147L609 146M615 146L616 147L615 146M254 147L255 148L254 147z"/>
<path style="fill:#c4c7cd; stroke:none;" d="M255 147L256 148L255 147z"/>
<path style="fill:#4074e2; stroke:none;" d="M306.333 147.667L306.667 148.333L306.333 147.667M334 147L335 148L334 147M362.333 147.667L362.667 148.333L362.333 147.667M467 147L468 148L467 147M541 147L542 148L541 147M571 147L572 148L571 147M608 147L609 148L608 147M616 147L617 148L616 147M250 148L251 149L250 148z"/>
<path style="fill:#c4c7cd; stroke:none;" d="M251.667 148.333L252.333 148.667L251.667 148.333M335 148L336 149L335 148z"/>
<path style="fill:#4074e2; stroke:none;" d="M468 148L469 149L468 148z"/>
<path style="fill:#c4c7cd; stroke:none;" d="M541 148L542 149L541 148z"/>
<path style="fill:#4074e2; stroke:none;" d="M573 148L574 149L573 148M607 148L608 149L607 148z"/>
<path style="fill:#c4c7cd; stroke:none;" d="M618 148L619 149L618 148z"/>
<path style="fill:#4074e2; stroke:none;" d="M241 149L241 150L246 150L241 149z"/>
<path style="fill:#c4c7cd; stroke:none;" d="M246.667 149.333L247.333 149.667L246.667 149.333M306 149L307 150L306 149z"/>
<path style="fill:#4074e2; stroke:none;" d="M335 149L336 150L335 149M361 149L362 150L361 149z"/>
<path style="fill:#c4c7cd; stroke:none;" d="M468 149L469 150L468 149z"/>
<path style="fill:#4074e2; stroke:none;" d="M542 149L543 150L542 149M574 149L575 150L574 149z"/>
<path style="fill:#c4c7cd; stroke:none;" d="M605 149L606 150L605 149M619 149L620 150L619 149z"/>
<path style="fill:#4074e2; stroke:none;" d="M336 150L337 151L336 150M360 150L361 151L360 150M389.333 150.667L389.667 151.333L389.333 150.667z"/>
<path style="fill:#c4c7cd; stroke:none;" d="M469 150L470 151L469 150M542 150L543 151L542 150z"/>
<path style="fill:#4074e2; stroke:none;" d="M575 150L576 151L575 150M604 150L605 151L604 150M620 150L621 151L620 150M307 151L308 152L307 151M338 151L339 152L338 151z"/>
<path style="fill:#c4c7cd; stroke:none;" d="M358 151L359 152L358 151z"/>
<path style="fill:#4074e2; stroke:none;" d="M359 151L360 152L359 151M470 151L471 152L470 151M543 151L544 152L543 151M577 151L578 152L577 151z"/>
<path style="fill:#c4c7cd; stroke:none;" d="M602 151L603 152L602 151z"/>
<path style="fill:#4074e2; stroke:none;" d="M621 151L622 152L621 151z"/>
<path style="fill:#c4c7cd; stroke:none;" d="M307 152L308 153L307 152z"/>
<path style="fill:#4074e2; stroke:none;" d="M339 152L340 153L339 152M357 152L358 153L357 152M471 152L472 153L471 152z"/>
<path style="fill:#c4c7cd; stroke:none;" d="M543 152L544 153L543 152z"/>
<path style="fill:#4074e2; stroke:none;" d="M579.667 152.333L580.333 152.667L579.667 152.333z"/>
<path style="fill:#c4c7cd; stroke:none;" d="M599 152L600 153L599 152z"/>
<path style="fill:#4074e2; stroke:none;" d="M600 152L601 153L600 152M622 152L623 153L622 152M308 153L309 154L308 153M341.667 153.333L342.333 153.667L341.667 153.333z"/>
<path style="fill:#c4c7cd; stroke:none;" d="M354 153L355 154L354 153z"/>
<path style="fill:#4074e2; stroke:none;" d="M355 153L356 154L355 153M388 153L389 154L388 153M472 153L473 154L472 153M544 153L545 154L544 153M582 153L583 154L582 153z"/>
<path style="fill:#c4c7cd; stroke:none;" d="M583.667 153.333L584.333 153.667L583.667 153.333M596 153L597 154L596 153z"/>
<path style="fill:#4074e2; stroke:none;" d="M597.667 153.333L598.333 153.667L597.667 153.333M623 153L624 154L623 153z"/>
<path style="fill:#c4c7cd; stroke:none;" d="M308 154L309 155L308 154z"/>
<path style="fill:#4074e2; stroke:none;" d="M345 154L345 155L353 155L345 154M473 154L474 155L473 154M545 154L546 155L545 154M587 154L587 155L594 155L587 154M624 154L625 155L624 154M309 155L310 156L309 155M387 155L388 156L387 155z"/>
<path style="fill:#c4c7cd; stroke:none;" d="M473 155L474 156L473 155M545 155L546 156L545 155z"/>
<path style="fill:#4074e2; stroke:none;" d="M625 155L626 156L625 155z"/>
<path style="fill:#c4c7cd; stroke:none;" d="M309 156L310 157L309 156M474 156L475 157L474 156z"/>
<path style="fill:#4074e2; stroke:none;" d="M546 156L547 157L546 156M626 156L627 157L626 156M310 157L311 158L310 157M386 157L387 158L386 157M475 157L476 158L475 157M547 157L548 158L547 157M627 157L628 158L627 157z"/>
<path style="fill:#c4c7cd; stroke:none;" d="M310 158L311 159L310 158z"/>
<path style="fill:#4074e2; stroke:none;" d="M476 158L477 159L476 158M548 158L549 159L548 158z"/>
<path style="fill:#c4c7cd; stroke:none;" d="M629 158L630 159L629 158M113 159L114 160L113 159z"/>
<path style="fill:#4074e2; stroke:none;" d="M311 159L312 160L311 159M385 159L386 160L385 159M477 159L478 160L477 159z"/>
<path style="fill:#c4c7cd; stroke:none;" d="M548 159L549 160L548 159z"/>
<path style="fill:#4074e2; stroke:none;" d="M628 159L629 160L628 159z"/>
<path style="fill:#c4c7cd; stroke:none;" d="M112 160L113 161L112 160z"/>
<path style="fill:#4074e2; stroke:none;" d="M312 160L313 161L312 160M384 160L385 161L384 160M478 160L479 161L478 160z"/>
<path style="fill:#c4c7cd; stroke:none;" d="M549 160L550 161L549 160z"/>
<path style="fill:#4074e2; stroke:none;" d="M627 160L628 161L627 160z"/>
<path style="fill:#c4c7cd; stroke:none;" d="M111 161L112 162L111 161M312 161L313 162L312 161z"/>
<path style="fill:#4074e2; stroke:none;" d="M383 161L384 162L383 161z"/>
<path style="fill:#c4c7cd; stroke:none;" d="M478 161L479 162L478 161M550 161L551 162L550 161z"/>
<path style="fill:#4074e2; stroke:none;" d="M626 161L627 162L626 161z"/>
<path style="fill:#c4c7cd; stroke:none;" d="M110 162L111 163L110 162M313 162L314 163L313 162M479 162L480 163L479 162M551 162L552 163L551 162M109 163L110 164L109 163z"/>
<path style="fill:#4074e2; stroke:none;" d="M314 163L315 164L314 163z"/>
<path style="fill:#c4c7cd; stroke:none;" d="M382 163L383 164L382 163z"/>
<path style="fill:#4074e2; stroke:none;" d="M480 163L481 164L480 163z"/>
<path style="fill:#c4c7cd; stroke:none;" d="M552 163L553 164L552 163z"/>
<path style="fill:#4074e2; stroke:none;" d="M624 163L625 164L624 163z"/>
<path style="fill:#c4c7cd; stroke:none;" d="M625 163L626 164L625 163M108 164L109 165L108 164z"/>
<path style="fill:#4074e2; stroke:none;" d="M315 164L316 165L315 164M381 164L382 165L381 164M481 164L482 165L481 164M554 164L555 165L554 164M623 164L624 165L623 164z"/>
<path style="fill:#c4c7cd; stroke:none;" d="M107 165L108 166L107 165z"/>
<path style="fill:#4074e2; stroke:none;" d="M316 165L317 166L316 165M380 165L381 166L380 165M482 165L483 166L482 165M555 165L556 166L555 165M622 165L623 166L622 165z"/>
<path style="fill:#c4c7cd; stroke:none;" d="M106 166L107 167L106 166z"/>
<path style="fill:#4074e2; stroke:none;" d="M317 166L318 167L317 166M378 166L379 167L378 166z"/>
<path style="fill:#c4c7cd; stroke:none;" d="M379 166L380 167L379 166z"/>
<path style="fill:#4074e2; stroke:none;" d="M483 166L484 167L483 166M556 166L557 167L556 166M621 166L622 167L621 166z"/>
<path style="fill:#c4c7cd; stroke:none;" d="M105 167L106 168L105 167M318 167L319 168L318 167z"/>
<path style="fill:#4074e2; stroke:none;" d="M377 167L378 168L377 167z"/>
<path style="fill:#c4c7cd; stroke:none;" d="M483 167L484 168L483 167M557 167L558 168L557 167z"/>
<path style="fill:#4074e2; stroke:none;" d="M558 167L559 168L558 167M619 167L620 168L619 167z"/>
<path style="fill:#c4c7cd; stroke:none;" d="M620 167L621 168L620 167M104 168L105 169L104 168z"/>
<path style="fill:#4074e2; stroke:none;" d="M320 168L321 169L320 168M376 168L377 169L376 168z"/>
<path style="fill:#c4c7cd; stroke:none;" d="M484 168L485 169L484 168z"/>
<path style="fill:#4074e2; stroke:none;" d="M559 168L560 169L559 168M618 168L619 169L618 168z"/>
<path style="fill:#c4c7cd; stroke:none;" d="M103 169L104 170L103 169z"/>
<path style="fill:#4074e2; stroke:none;" d="M321 169L322 170L321 169z"/>
<path style="fill:#c4c7cd; stroke:none;" d="M375 169L376 170L375 169z"/>
<path style="fill:#4074e2; stroke:none;" d="M485 169L486 170L485 169M561 169L562 170L561 169M616 169L617 170L616 169z"/>
<path style="fill:#c4c7cd; stroke:none;" d="M617 169L618 170L617 169M322 170L323 171L322 170z"/>
<path style="fill:#4074e2; stroke:none;" d="M323 170L324 171L323 170M373 170L374 171L373 170z"/>
<path style="fill:#c4c7cd; stroke:none;" d="M374 170L375 171L374 170z"/>
<path style="fill:#4074e2; stroke:none;" d="M486 170L487 171L486 170M562.667 170.333L563.333 170.667L562.667 170.333M614 170L615 171L614 170z"/>
<path style="fill:#c4c7cd; stroke:none;" d="M615 170L616 171L615 170z"/>
<path style="fill:#4074e2; stroke:none;" d="M325 171L326 172L325 171M371 171L372 172L371 171M487 171L488 172L487 171M565 171L566 172L565 171M612 171L613 172L612 171z"/>
<path style="fill:#c4c7cd; stroke:none;" d="M613 171L614 172L613 171M67 172L68 173L67 172z"/>
<path style="fill:#4074e2; stroke:none;" d="M327 172L328 173L327 172M368.667 172.333L369.333 172.667L368.667 172.333M567 172L568 173L567 172M610 172L611 173L610 172z"/>
<path style="fill:#c4c7cd; stroke:none;" d="M611 172L612 173L611 172z"/>
<path style="fill:#4074e2; stroke:none;" d="M329.667 173.333L330.333 173.667L329.667 173.333M366 173L367 174L366 173z"/>
<path style="fill:#c4c7cd; stroke:none;" d="M367 173L368 174L367 173M488 173L489 174L488 173z"/>
<path style="fill:#4074e2; stroke:none;" d="M569.667 173.333L570.333 173.667L569.667 173.333M607 173L608 174L607 173z"/>
<path style="fill:#c4c7cd; stroke:none;" d="M608 173L609 174L608 173M70 174L71 175L70 174M96 174L97 175L96 174M194 174L195 175L194 174z"/>
<path style="fill:#4074e2; stroke:none;" d="M332 174L332 175L335 175L332 174M362.667 174.333L363.333 174.667L362.667 174.333z"/>
<path style="fill:#c4c7cd; stroke:none;" d="M364 174L365 175L364 174M511 174L512 175L511 174M572 174L573 175L572 174z"/>
<path style="fill:#4074e2; stroke:none;" d="M573.667 174.333L574.333 174.667L573.667 174.333M603.667 174.333L604.333 174.667L603.667 174.333z"/>
<path style="fill:#c4c7cd; stroke:none;" d="M605 174L606 175L605 174M679 174L680 175L679 174z"/>
<path style="fill:#4074e2; stroke:none;" d="M716 174L716 175L742 175L716 174z"/>
<path style="fill:#c4c7cd; stroke:none;" d="M72 175L73 176L72 175M94 175L95 176L94 175M336 175L337 176L336 175z"/>
<path style="fill:#4074e2; stroke:none;" d="M337 175L337 176L340 176L337 175M357 175L357 176L360 176L357 175z"/>
<path style="fill:#c4c7cd; stroke:none;" d="M360 175L361 176L360 175M576 175L577 176L576 175z"/>
<path style="fill:#4074e2; stroke:none;" d="M577 175L577 176L580 176L577 175M597 175L597 176L601 176L597 175z"/>
<path style="fill:#c4c7cd; stroke:none;" d="M601 175L602 176L601 175M75 176L76 177L75 176M91 176L92 177L91 176M344.667 176.333L345.333 176.667L344.667 176.333z"/>
<path style="fill:#4074e2; stroke:none;" d="M346 176L346 177L350 177L346 176z"/>
<path style="fill:#c4c7cd; stroke:none;" d="M350 176L350 177L354 177L350 176M582 176L582 177L587 177L582 176z"/>
<path style="fill:#4074e2; stroke:none;" d="M587 176L587 177L591 177L587 176z"/>
<path style="fill:#c4c7cd; stroke:none;" d="M591 176L591 177L596 177L591 176M79 177L79 178L83 178L79 177M85 177L85 178L88 178L85 177z"/>
</svg>
